<svg width="26" height="26" viewBox="0 0 26 26" fill="none" xmlns="http://www.w3.org/2000/svg">
<mask id="mask0_448_85" style="mask-type:alpha" maskUnits="userSpaceOnUse" x="0" y="0" width="26" height="26">
<rect width="26" height="26" fill="#D9D9D9" style="fill:#D9D9D9;fill:color(display-p3 0.8510 0.8510 0.8510);fill-opacity:1;"/>
</mask>
<g mask="url(#mask0_448_85)">
<path d="M5.95833 21.9375V5.75008C5.95833 5.20282 6.14792 4.7396 6.52708 4.36044C6.90625 3.98127 7.36946 3.79169 7.91673 3.79169H18.0833C18.6305 3.79169 19.0937 3.98127 19.4729 4.36044C19.8521 4.7396 20.0417 5.20282 20.0417 5.75008V21.9375L13 18.9166L5.95833 21.9375ZM7.58333 19.4459L13 17.1167L18.4167 19.4459V5.75008C18.4167 5.66667 18.3819 5.59029 18.3124 5.52096C18.2431 5.45144 18.1667 5.41669 18.0833 5.41669H7.91673C7.83331 5.41669 7.75694 5.45144 7.6876 5.52096C7.61809 5.59029 7.58333 5.66667 7.58333 5.75008V19.4459Z" fill="#373C38" style="fill:#373C38;fill:color(display-p3 0.2175 0.2355 0.2200);fill-opacity:1;"/>
</g>
</svg>
