<svg width="24" height="24" viewBox="0 0 24 24" fill="none" xmlns="http://www.w3.org/2000/svg">
<mask id="mask0_350_883" style="mask-type:alpha" maskUnits="userSpaceOnUse" x="0" y="0" width="24" height="24">
<rect width="24" height="24" fill="#D9D9D9" style="fill:#D9D9D9;fill:color(display-p3 0.8510 0.8510 0.8510);fill-opacity:1;"/>
</mask>
<g mask="url(#mask0_350_883)">
<path d="M5.30775 21.5C4.80258 21.5 4.375 21.325 4.025 20.975C3.675 20.625 3.5 20.1974 3.5 19.6923V6.30777C3.5 5.8026 3.675 5.37502 4.025 5.02502C4.375 4.67502 4.80258 4.50002 5.30775 4.50002H6.69225V2.38477H8.23075V4.50002H15.8077V2.38477H17.3077V4.50002H18.6923C19.1974 4.50002 19.625 4.67502 19.975 5.02502C20.325 5.37502 20.5 5.8026 20.5 6.30777V19.6923C20.5 20.1974 20.325 20.625 19.975 20.975C19.625 21.325 19.1974 21.5 18.6923 21.5H5.30775ZM5.30775 20H18.6923C18.7692 20 18.8398 19.9679 18.9038 19.9038C18.9679 19.8398 19 19.7693 19 19.6923V10.3078H5V19.6923C5 19.7693 5.03208 19.8398 5.09625 19.9038C5.16025 19.9679 5.23075 20 5.30775 20ZM5 8.80777H19V6.30777C19 6.23077 18.9679 6.16026 18.9038 6.09626C18.8398 6.0321 18.7692 6.00002 18.6923 6.00002H5.30775C5.23075 6.00002 5.16025 6.0321 5.09625 6.09626C5.03208 6.16026 5 6.23077 5 6.30777V8.80777Z" fill="#8ED49B" style="fill:#8ED49B;fill:color(display-p3 0.5553 0.8299 0.6070);fill-opacity:1;"/>
</g>
</svg>
