<svg width="30" height="30" viewBox="0 0 30 30" fill="none" xmlns="http://www.w3.org/2000/svg">
<mask id="mask0_350_1266" style="mask-type:alpha" maskUnits="userSpaceOnUse" x="0" y="0" width="30" height="30">
<rect width="30" height="30" fill="#D9D9D9" style="fill:#D9D9D9;fill:color(display-p3 0.8510 0.8510 0.8510);fill-opacity:1;"/>
</mask>
<g mask="url(#mask0_350_1266)">
<path d="M11.2212 23.75H18.7909L18.0097 20.625H12.0025L11.2212 23.75ZM11.25 18.75H18.75C20.4792 18.75 21.9531 18.1406 23.1719 16.9219C24.3906 15.7031 25 14.2292 25 12.5C25 10.7708 24.3906 9.29688 23.1719 8.07812C21.9531 6.85938 20.4792 6.25 18.75 6.25H11.25C9.52083 6.25 8.04688 6.85938 6.82812 8.07812C5.60938 9.29688 5 10.7708 5 12.5C5 14.2292 5.60938 15.7031 6.82812 16.9219C8.04688 18.1406 9.52083 18.75 11.25 18.75ZM14.9978 15.3125C14.2236 15.3125 13.5617 15.0369 13.0119 14.4856C12.4623 13.9344 12.1875 13.2718 12.1875 12.4978C12.1875 11.7236 12.4631 11.0617 13.0144 10.5119C13.5656 9.96229 14.2282 9.6875 15.0022 9.6875C15.7764 9.6875 16.4383 9.96313 16.9881 10.5144C17.5377 11.0656 17.8125 11.7282 17.8125 12.5022C17.8125 13.2764 17.5369 13.9383 16.9856 14.4881C16.4344 15.0377 15.7718 15.3125 14.9978 15.3125ZM8.12469 11.0816C8.43094 11.0816 8.68781 10.978 8.89531 10.7709C9.10281 10.5636 9.20656 10.3068 9.20656 10.0003C9.20656 9.69406 9.10302 9.43719 8.89594 9.22969C8.68865 9.02219 8.43177 8.91844 8.12531 8.91844C7.81906 8.91844 7.56219 9.02198 7.35469 9.22906C7.14719 9.43635 7.04344 9.69323 7.04344 9.99969C7.04344 10.3059 7.14698 10.5628 7.35406 10.7703C7.56135 10.9778 7.81823 11.0816 8.12469 11.0816ZM5.3125 25.625V23.75H9.29563L10.0962 20.5359C8.11375 20.2699 6.45625 19.3797 5.12375 17.8653C3.79125 16.3509 3.125 14.5625 3.125 12.5C3.125 10.2367 3.91333 8.31667 5.49 6.74C7.06667 5.16333 8.98667 4.375 11.25 4.375H18.75C21.0133 4.375 22.9333 5.16333 24.51 6.74C26.0867 8.31667 26.875 10.2367 26.875 12.5C26.875 14.5625 26.2087 16.3509 24.8762 17.8653C23.5437 19.3797 21.8862 20.2699 19.9037 20.5359L20.7044 23.75H24.6875V25.625H5.3125ZM15 17.1875C16.2948 17.1875 17.3998 16.73 18.315 15.815C19.23 14.8998 19.6875 13.7948 19.6875 12.5C19.6875 11.2052 19.23 10.1002 18.315 9.185C17.3998 8.27 16.2948 7.8125 15 7.8125C13.7052 7.8125 12.6002 8.27 11.685 9.185C10.77 10.1002 10.3125 11.2052 10.3125 12.5C10.3125 13.7948 10.77 14.8998 11.685 15.815C12.6002 16.73 13.7052 17.1875 15 17.1875Z" fill="white" style="fill:white;fill-opacity:1;"/>
</g>
</svg>
