<svg width="72" height="72" viewBox="0 0 72 72" fill="none" xmlns="http://www.w3.org/2000/svg">
<g filter="url(#filter0_d_294_1079)">
<rect x="6" y="5" width="60" height="60" rx="30" fill="#0FB050" style="fill:#0FB050;fill:color(display-p3 0.0592 0.6900 0.3125);fill-opacity:1;"/>
<path d="M29.3809 46.7402C29.3809 47.3105 29.291 47.8516 29.1113 48.3633C28.9355 48.8711 28.6699 49.3223 28.3145 49.7168C27.959 50.1074 27.5195 50.4062 26.9961 50.6133L26.3691 49.6582C26.8066 49.4824 27.1758 49.2441 27.4766 48.9434C27.7812 48.6426 28.0098 48.3027 28.1621 47.9238C28.3145 47.541 28.3906 47.1465 28.3906 46.7402V46.4238H29.3809V46.7402ZM29.6211 46.7402C29.6211 47.1191 29.6973 47.4844 29.8496 47.8359C30.002 48.1836 30.2305 48.498 30.5352 48.7793C30.8398 49.0566 31.207 49.2754 31.6367 49.4355L31.0449 50.4082C30.5215 50.2168 30.0801 49.9355 29.7207 49.5645C29.3613 49.1934 29.0938 48.7656 28.918 48.2812C28.7422 47.7969 28.6543 47.2832 28.6543 46.7402V46.4238H29.6211V46.7402ZM31.3438 46.752H26.6445V45.7148H31.3438V46.752ZM29.6211 46.207H28.3906V44.5957H29.6211V46.207ZM35.4102 51.6152H34.168V44.4609H35.4102V51.6152ZM34.5723 48.1172H32.7617V47.0449H34.5723V48.1172ZM33.1484 50.6953H31.9121V44.6367H33.1484V50.6953ZM32.252 51.3398C32.252 51.9531 32.0781 52.5137 31.7305 53.0215C31.3867 53.5293 30.9043 53.9531 30.2832 54.293C29.6621 54.6328 28.9414 54.8633 28.1211 54.9844L27.6641 53.9824C28.3594 53.8887 28.9688 53.709 29.4922 53.4434C30.0156 53.1777 30.418 52.8613 30.6992 52.4941C30.9844 52.127 31.127 51.7422 31.127 51.3398V51.1348H32.252V51.3398ZM32.4336 51.3398C32.4336 51.7422 32.5762 52.127 32.8613 52.4941C33.1465 52.8613 33.5527 53.1777 34.0801 53.4434C34.6074 53.709 35.2168 53.8887 35.9082 53.9824L35.4512 54.9844C34.627 54.8633 33.9043 54.6328 33.2832 54.293C32.6621 53.9531 32.1816 53.5293 31.8418 53.0215C31.502 52.5137 31.332 51.9531 31.332 51.3398V51.1348H32.4336V51.3398ZM39.2598 45.7559H43.8301V44.748H45.125V48.7031H37.9766V44.748H39.2598V45.7559ZM43.8301 47.6895V46.7461H39.2598V47.6895H43.8301ZM46.373 50.7129H36.7285V49.6816H46.373V50.7129ZM42.1895 49.9512H40.9062V48.2812H42.1895V49.9512ZM42.0078 51.5391C42.0078 52.1328 41.8379 52.668 41.498 53.1445C41.1582 53.6211 40.6777 54.0176 40.0566 54.334C39.4355 54.6504 38.709 54.8672 37.877 54.9844L37.4023 53.9883C38.1133 53.9062 38.7305 53.7441 39.2539 53.502C39.7812 53.2598 40.1836 52.9707 40.4609 52.6348C40.7422 52.2949 40.8828 51.9297 40.8828 51.5391V51.3047H42.0078V51.5391ZM42.1953 51.5391C42.1953 51.9297 42.334 52.2949 42.6113 52.6348C42.8926 52.9707 43.2969 53.2598 43.8242 53.502C44.3555 53.7441 44.9785 53.9062 45.6934 53.9883L45.2305 54.9844C44.3906 54.8672 43.6582 54.6504 43.0332 54.334C42.4121 54.0215 41.9316 53.627 41.5918 53.1504C41.2559 52.6699 41.0879 52.1328 41.0879 51.5391V51.3047H42.1953V51.5391Z" fill="white" style="fill:white;fill-opacity:1;"/>
<mask id="mask0_294_1079" style="mask-type:alpha" maskUnits="userSpaceOnUse" x="21" y="13" width="30" height="30">
<rect x="21" y="13" width="30" height="30" fill="#D9D9D9" style="fill:#D9D9D9;fill:color(display-p3 0.8510 0.8510 0.8510);fill-opacity:1;"/>
</mask>
<g mask="url(#mask0_294_1079)">
<path d="M32.2212 36.75H39.7909L39.0097 33.625H33.0025L32.2212 36.75ZM32.25 31.75H39.75C41.4792 31.75 42.9531 31.1406 44.1719 29.9219C45.3906 28.7031 46 27.2292 46 25.5C46 23.7708 45.3906 22.2969 44.1719 21.0781C42.9531 19.8594 41.4792 19.25 39.75 19.25H32.25C30.5208 19.25 29.0469 19.8594 27.8281 21.0781C26.6094 22.2969 26 23.7708 26 25.5C26 27.2292 26.6094 28.7031 27.8281 29.9219C29.0469 31.1406 30.5208 31.75 32.25 31.75ZM35.9978 28.3125C35.2236 28.3125 34.5617 28.0369 34.0119 27.4856C33.4623 26.9344 33.1875 26.2718 33.1875 25.4978C33.1875 24.7236 33.4631 24.0617 34.0144 23.5119C34.5656 22.9623 35.2282 22.6875 36.0022 22.6875C36.7764 22.6875 37.4383 22.9631 37.9881 23.5144C38.5377 24.0656 38.8125 24.7282 38.8125 25.5022C38.8125 26.2764 38.5369 26.9383 37.9856 27.4881C37.4344 28.0377 36.7718 28.3125 35.9978 28.3125ZM29.1247 24.0816C29.4309 24.0816 29.6878 23.978 29.8953 23.7709C30.1028 23.5636 30.2066 23.3068 30.2066 23.0003C30.2066 22.6941 30.103 22.4372 29.8959 22.2297C29.6886 22.0222 29.4318 21.9184 29.1253 21.9184C28.8191 21.9184 28.5622 22.022 28.3547 22.2291C28.1472 22.4364 28.0434 22.6932 28.0434 22.9997C28.0434 23.3059 28.147 23.5628 28.3541 23.7703C28.5614 23.9778 28.8182 24.0816 29.1247 24.0816ZM26.3125 38.625V36.75H30.2956L31.0962 33.5359C29.1137 33.2699 27.4563 32.3797 26.1238 30.8653C24.7913 29.3509 24.125 27.5625 24.125 25.5C24.125 23.2367 24.9133 21.3167 26.49 19.74C28.0667 18.1633 29.9867 17.375 32.25 17.375H39.75C42.0133 17.375 43.9333 18.1633 45.51 19.74C47.0867 21.3167 47.875 23.2367 47.875 25.5C47.875 27.5625 47.2087 29.3509 45.8762 30.8653C44.5437 32.3797 42.8862 33.2699 40.9037 33.5359L41.7044 36.75H45.6875V38.625H26.3125ZM36 30.1875C37.2948 30.1875 38.3998 29.73 39.315 28.815C40.23 27.8998 40.6875 26.7948 40.6875 25.5C40.6875 24.2052 40.23 23.1002 39.315 22.185C38.3998 21.27 37.2948 20.8125 36 20.8125C34.7052 20.8125 33.6002 21.27 32.685 22.185C31.77 23.1002 31.3125 24.2052 31.3125 25.5C31.3125 26.7948 31.77 27.8998 32.685 28.815C33.6002 29.73 34.7052 30.1875 36 30.1875Z" fill="white" style="fill:white;fill-opacity:1;"/>
</g>
</g>
<defs>
<filter id="filter0_d_294_1079" x="0" y="0" width="72" height="72" filterUnits="userSpaceOnUse" color-interpolation-filters="sRGB">
<feFlood flood-opacity="0" result="BackgroundImageFix"/>
<feColorMatrix in="SourceAlpha" type="matrix" values="0 0 0 0 0 0 0 0 0 0 0 0 0 0 0 0 0 0 127 0" result="hardAlpha"/>
<feOffset dy="1"/>
<feGaussianBlur stdDeviation="3"/>
<feComposite in2="hardAlpha" operator="out"/>
<feColorMatrix type="matrix" values="0 0 0 0 0 0 0 0 0 0 0 0 0 0 0 0 0 0 0.15 0"/>
<feBlend mode="normal" in2="BackgroundImageFix" result="effect1_dropShadow_294_1079"/>
<feBlend mode="normal" in="SourceGraphic" in2="effect1_dropShadow_294_1079" result="shape"/>
</filter>
</defs>
</svg>
