<svg width="22" height="22" viewBox="0 0 22 22" fill="none" xmlns="http://www.w3.org/2000/svg">
<mask id="mask0_350_518" style="mask-type:alpha" maskUnits="userSpaceOnUse" x="0" y="0" width="22" height="22">
<rect width="22" height="22" fill="#D9D9D9" style="fill:#D9D9D9;fill:color(display-p3 0.8510 0.8510 0.8510);fill-opacity:1;"/>
</mask>
<g mask="url(#mask0_350_518)">
<path d="M11.0016 19.7084C9.7971 19.7084 8.66494 19.4798 7.60512 19.0227C6.5453 18.5656 5.62344 17.9452 4.83954 17.1616C4.05564 16.378 3.43498 15.4565 2.97756 14.3972C2.5203 13.3378 2.29166 12.206 2.29166 11.0016C2.29166 9.79713 2.52022 8.66497 2.97733 7.60515C3.43444 6.54533 4.0548 5.62346 4.83839 4.83956C5.62199 4.05566 6.54347 3.435 7.60283 2.97758C8.66219 2.52032 9.79405 2.29169 10.9984 2.29169C12.2029 2.29169 13.3351 2.52024 14.3949 2.97735C15.4547 3.43446 16.3766 4.05482 17.1605 4.83842C17.9444 5.62201 18.565 6.54349 19.0224 7.60285C19.4797 8.66222 19.7083 9.79407 19.7083 10.9984C19.7083 12.2029 19.4798 13.3351 19.0227 14.3949C18.5656 15.4547 17.9452 16.3766 17.1616 17.1605C16.378 17.9444 15.4565 18.565 14.3972 19.0225C13.3378 19.4797 12.2059 19.7084 11.0016 19.7084ZM11 18.3334C13.0472 18.3334 14.7812 17.6229 16.2021 16.2021C17.6229 14.7813 18.3333 13.0472 18.3333 11C18.3333 8.9528 17.6229 7.21877 16.2021 5.79794C14.7812 4.3771 13.0472 3.66669 11 3.66669C8.95278 3.66669 7.21875 4.3771 5.79791 5.79794C4.37708 7.21877 3.66666 8.9528 3.66666 11C3.66666 13.0472 4.37708 14.7813 5.79791 16.2021C7.21875 17.6229 8.95278 18.3334 11 18.3334Z" fill="#DAE0DB" style="fill:#DAE0DB;fill:color(display-p3 0.8567 0.8774 0.8595);fill-opacity:1;"/>
</g>
</svg>
