<svg width="22" height="22" viewBox="0 0 22 22" fill="none" xmlns="http://www.w3.org/2000/svg">
<mask id="mask0_182_2553" style="mask-type:alpha" maskUnits="userSpaceOnUse" x="0" y="0" width="22" height="22">
<rect width="22" height="22" fill="#D9D9D9" style="fill:#D9D9D9;fill:color(display-p3 0.8510 0.8510 0.8510);fill-opacity:1;"/>
</mask>
<g mask="url(#mask0_182_2553)">
<path d="M9.69902 14.8993L15.8618 8.73651L14.8958 7.77057L9.69902 12.9674L7.08652 10.3549L6.12058 11.3208L9.69902 14.8993ZM11.0016 19.7083C9.7971 19.7083 8.66494 19.4798 7.60512 19.0227C6.5453 18.5655 5.62344 17.9452 4.83954 17.1616C4.05564 16.378 3.43498 15.4565 2.97756 14.3972C2.5203 13.3378 2.29166 12.2059 2.29166 11.0016C2.29166 9.79709 2.52022 8.66493 2.97733 7.60511C3.43444 6.5453 4.0548 5.62343 4.83839 4.83953C5.62199 4.05563 6.54347 3.43497 7.60283 2.97755C8.66219 2.52029 9.79405 2.29166 10.9984 2.29166C12.2029 2.29166 13.3351 2.52021 14.3949 2.97732C15.4547 3.43443 16.3766 4.05479 17.1605 4.83839C17.9444 5.62198 18.565 6.54346 19.0224 7.60282C19.4797 8.66219 19.7083 9.79404 19.7083 10.9984C19.7083 12.2029 19.4798 13.335 19.0227 14.3949C18.5656 15.4547 17.9452 16.3765 17.1616 17.1604C16.378 17.9444 15.4565 18.565 14.3972 19.0224C13.3378 19.4797 12.2059 19.7083 11.0016 19.7083Z" fill="#373C38" style="fill:#373C38;fill:color(display-p3 0.2175 0.2355 0.2200);fill-opacity:1;"/>
</g>
</svg>
