<svg width="19" height="18" viewBox="0 0 19 18" fill="none" xmlns="http://www.w3.org/2000/svg">
<mask id="mask0_334_7448" style="mask-type:alpha" maskUnits="userSpaceOnUse" x="0" y="0" width="19" height="18">
<rect x="0.5" width="18" height="18" fill="#D9D9D9" style="fill:#D9D9D9;fill:color(display-p3 0.8510 0.8510 0.8510);fill-opacity:1;"/>
</mask>
<g mask="url(#mask0_334_7448)">
<path d="M9.50174 11.6827C10.3516 11.6827 11.0734 11.3853 11.6672 10.7904C12.2609 10.1956 12.5578 9.47319 12.5578 8.62331C12.5578 7.77344 12.2604 7.05163 11.6655 6.45787C11.0706 5.86412 10.3482 5.56725 9.49837 5.56725C8.64849 5.56725 7.92668 5.86469 7.33293 6.45956C6.73918 7.05444 6.44231 7.77681 6.44231 8.62669C6.44231 9.47656 6.73974 10.1984 7.33462 10.7921C7.92949 11.3859 8.65187 11.6827 9.50174 11.6827ZM9.50006 10.65C8.93756 10.65 8.45943 10.4531 8.06568 10.0594C7.67193 9.66563 7.47506 9.1875 7.47506 8.625C7.47506 8.0625 7.67193 7.58437 8.06568 7.19063C8.45943 6.79688 8.93756 6.6 9.50006 6.6C10.0626 6.6 10.5407 6.79688 10.9344 7.19063C11.3282 7.58437 11.5251 8.0625 11.5251 8.625C11.5251 9.1875 11.3282 9.66563 10.9344 10.0594C10.5407 10.4531 10.0626 10.65 9.50006 10.65ZM9.50099 13.875C7.77637 13.875 6.20493 13.3993 4.78668 12.4478C3.36843 11.4964 2.32418 10.2221 1.65393 8.625C2.32418 7.02787 3.36806 5.75362 4.78556 4.80225C6.20318 3.85075 7.77437 3.375 9.49912 3.375C11.2237 3.375 12.7952 3.85075 14.2134 4.80225C15.6317 5.75362 16.6759 7.02787 17.3462 8.625C16.6759 10.2221 15.6321 11.4964 14.2146 12.4478C12.7969 13.3993 11.2257 13.875 9.50099 13.875ZM9.50006 12.75C10.9126 12.75 12.2094 12.3781 13.3907 11.6344C14.5719 10.8906 15.4751 9.8875 16.1001 8.625C15.4751 7.3625 14.5719 6.35938 13.3907 5.61562C12.2094 4.87187 10.9126 4.5 9.50006 4.5C8.08756 4.5 6.79068 4.87187 5.60943 5.61562C4.42818 6.35938 3.52506 7.3625 2.90006 8.625C3.52506 9.8875 4.42818 10.8906 5.60943 11.6344C6.79068 12.3781 8.08756 12.75 9.50006 12.75Z" fill="#BBBFBB" style="fill:#BBBFBB;fill:color(display-p3 0.7318 0.7499 0.7342);fill-opacity:1;"/>
</g>
</svg>
