<svg width="22" height="22" viewBox="0 0 22 22" fill="none" xmlns="http://www.w3.org/2000/svg">
<mask id="mask0_350_1156" style="mask-type:alpha" maskUnits="userSpaceOnUse" x="0" y="0" width="22" height="22">
<rect width="22" height="22" fill="#D9D9D9" style="fill:#D9D9D9;fill:color(display-p3 0.8510 0.8510 0.8510);fill-opacity:1;"/>
</mask>
<g mask="url(#mask0_350_1156)">
<path d="M11 19.7084C9.80603 19.7084 8.6793 19.4795 7.61978 19.0218C6.56027 18.564 5.63627 17.9409 4.84778 17.1522C4.05914 16.3637 3.43596 15.4397 2.97824 14.3802C2.52052 13.3207 2.29166 12.194 2.29166 11C2.29166 9.79659 2.52052 8.66749 2.97824 7.61271C3.43596 6.55793 4.05914 5.6363 4.84778 4.84781C5.63627 4.05917 6.56027 3.43599 7.61978 2.97827C8.6793 2.52055 9.80603 2.29169 11 2.29169C12.2034 2.29169 13.3325 2.52055 14.3873 2.97827C15.4421 3.43599 16.3637 4.05917 17.1522 4.84781C17.9408 5.6363 18.564 6.55793 19.0217 7.61271C19.4795 8.66749 19.7083 9.79659 19.7083 11C19.7083 12.194 19.4795 13.3207 19.0217 14.3802C18.564 15.4397 17.9408 16.3637 17.1522 17.1522C16.3637 17.9409 15.4421 18.564 14.3873 19.0218C13.3325 19.4795 12.2034 19.7084 11 19.7084ZM11 18.3139C11.4678 17.6934 11.8615 17.0677 12.1811 16.4365C12.5007 15.8054 12.7611 15.1156 12.9621 14.3669H9.03787C9.25069 15.1391 9.514 15.8407 9.8278 16.4718C10.1415 17.103 10.5322 17.717 11 18.3139ZM9.22487 18.0618C8.87348 17.5576 8.55791 16.9845 8.27818 16.3424C7.99844 15.7001 7.78104 15.0416 7.62597 14.3669H4.51641C5.00056 15.3189 5.64986 16.1187 6.46432 16.7663C7.27878 17.4138 8.19896 17.8456 9.22487 18.0618ZM12.7751 18.0618C13.801 17.8456 14.7212 17.4138 15.5357 16.7663C16.3501 16.1187 16.9994 15.3189 17.4836 14.3669H14.374C14.1895 15.0474 13.9573 15.7088 13.6776 16.3511C13.398 16.9933 13.0972 17.5636 12.7751 18.0618ZM3.93982 12.9919H7.34753C7.28993 12.6512 7.24815 12.3172 7.22218 11.9898C7.19636 11.6625 7.18345 11.3326 7.18345 11C7.18345 10.6674 7.19636 10.3375 7.22218 10.0103C7.24815 9.68285 7.28993 9.3488 7.34753 9.0081H3.93982C3.85167 9.31947 3.78414 9.6432 3.73724 9.97931C3.69018 10.3154 3.66666 10.6557 3.66666 11C3.66666 11.3444 3.69018 11.6846 3.73724 12.0207C3.78414 12.3568 3.85167 12.6806 3.93982 12.9919ZM8.7223 12.9919H13.2777C13.3351 12.6512 13.3768 12.3202 13.4028 11.9987C13.4286 11.6773 13.4415 11.3444 13.4415 11C13.4415 10.6557 13.4286 10.3228 13.4028 10.0013C13.3768 9.67987 13.3351 9.3488 13.2777 9.0081H8.7223C8.66486 9.3488 8.62315 9.67987 8.59718 10.0013C8.57136 10.3228 8.55845 10.6557 8.55845 11C8.55845 11.3444 8.57136 11.6773 8.59718 11.9987C8.62315 12.3202 8.66486 12.6512 8.7223 12.9919ZM14.6524 12.9919H18.0602C18.1483 12.6806 18.2158 12.3568 18.2627 12.0207C18.3098 11.6846 18.3333 11.3444 18.3333 11C18.3333 10.6557 18.3098 10.3154 18.2627 9.97931C18.2158 9.6432 18.1483 9.31947 18.0602 9.0081H14.6524C14.71 9.3488 14.7518 9.68285 14.7778 10.0103C14.8036 10.3375 14.8165 10.6674 14.8165 11C14.8165 11.3326 14.8036 11.6625 14.7778 11.9898C14.7518 12.3172 14.71 12.6512 14.6524 12.9919ZM14.374 7.6331H17.4836C16.9936 6.66938 16.3487 5.86959 15.549 5.23373C14.7492 4.59802 13.8245 4.16322 12.7751 3.92931C13.1265 4.46281 13.4391 5.04635 13.7129 5.67992C13.9868 6.31333 14.2072 6.9644 14.374 7.6331ZM9.03787 7.6331H12.9621C12.7493 6.86677 12.4816 6.16071 12.1591 5.51492C11.8364 4.86913 11.4501 4.25954 11 3.68617C10.5499 4.25954 10.1635 4.86913 9.84087 5.51492C9.51835 6.16071 9.25069 6.86677 9.03787 7.6331ZM4.51641 7.6331H7.62597C7.7928 6.9644 8.01319 6.31333 8.28712 5.67992C8.56089 5.04635 8.87348 4.46281 9.22487 3.92931C8.16948 4.16322 7.24341 4.59955 6.44668 5.23831C5.64979 5.87692 5.00637 6.67519 4.51641 7.6331Z" fill="#373C38" style="fill:#373C38;fill:color(display-p3 0.2175 0.2355 0.2200);fill-opacity:1;"/>
</g>
</svg>
