<svg width="98" height="63" viewBox="0 0 98 63" fill="none" xmlns="http://www.w3.org/2000/svg">
<mask id="mask0_2857_48" style="mask-type:alpha" maskUnits="userSpaceOnUse" x="0" y="-35" width="98" height="98">
<rect y="-35" width="98" height="98" fill="#D9D9D9"/>
</mask>
<g mask="url(#mask0_2857_48)">
<path d="M16.3333 42.5833L16.3333 34.4167H24.5V5.83333C24.5 0.184721 26.2014 -4.83438 29.6042 -9.22396C33.0069 -13.6135 37.4305 -16.4889 42.875 -17.85V-20.7083C42.875 -22.4097 43.4705 -23.8559 44.6615 -25.0469C45.8524 -26.2378 47.2986 -26.8333 49 -26.8333C50.7014 -26.8333 52.1476 -26.2378 53.3385 -25.0469C54.5295 -23.8559 55.125 -22.4097 55.125 -20.7083V-17.85C60.5694 -16.4889 64.993 -13.6135 68.3958 -9.22396C71.7986 -4.83438 73.5 0.184721 73.5 5.83333V34.4167H81.6667V42.5833H16.3333ZM49 54.8333C46.7542 54.8333 44.8316 54.0337 43.2323 52.4344C41.633 50.8351 40.8333 48.9125 40.8333 46.6667H57.1667C57.1667 48.9125 56.367 50.8351 54.7677 52.4344C53.1684 54.0337 51.2458 54.8333 49 54.8333ZM32.6667 34.4167H65.3333V5.83333C65.3333 1.34167 63.734 -2.50347 60.5354 -5.70208C57.3368 -8.9007 53.4917 -10.5 49 -10.5C44.5083 -10.5 40.6632 -8.9007 37.4646 -5.70208C34.266 -2.50347 32.6667 1.34167 32.6667 5.83333V34.4167Z" fill="#C7EACC"/>
</g>
</svg>
