<svg width="25" height="24" viewBox="0 0 25 24" fill="none" xmlns="http://www.w3.org/2000/svg">
<mask id="mask0_334_7457" style="mask-type:alpha" maskUnits="userSpaceOnUse" x="0" y="0" width="25" height="24">
<rect x="0.5" width="24" height="24" fill="#D9D9D9" style="fill:#D9D9D9;fill:color(display-p3 0.8510 0.8510 0.8510);fill-opacity:1;"/>
</mask>
<g mask="url(#mask0_334_7457)">
<path d="M17.5 22C16.6667 22 15.9583 21.7083 15.375 21.125C14.7917 20.5417 14.5 19.8333 14.5 19C14.5 18.9 14.525 18.6667 14.575 18.3L7.55 14.2C7.28333 14.45 6.975 14.6458 6.625 14.7875C6.275 14.9292 5.9 15 5.5 15C4.66667 15 3.95833 14.7083 3.375 14.125C2.79167 13.5417 2.5 12.8333 2.5 12C2.5 11.1667 2.79167 10.4583 3.375 9.875C3.95833 9.29167 4.66667 9 5.5 9C5.9 9 6.275 9.07083 6.625 9.2125C6.975 9.35417 7.28333 9.55 7.55 9.8L14.575 5.7C14.5417 5.58333 14.5208 5.47083 14.5125 5.3625C14.5042 5.25417 14.5 5.13333 14.5 5C14.5 4.16667 14.7917 3.45833 15.375 2.875C15.9583 2.29167 16.6667 2 17.5 2C18.3333 2 19.0417 2.29167 19.625 2.875C20.2083 3.45833 20.5 4.16667 20.5 5C20.5 5.83333 20.2083 6.54167 19.625 7.125C19.0417 7.70833 18.3333 8 17.5 8C17.1 8 16.725 7.92917 16.375 7.7875C16.025 7.64583 15.7167 7.45 15.45 7.2L8.425 11.3C8.45833 11.4167 8.47917 11.5292 8.4875 11.6375C8.49583 11.7458 8.5 11.8667 8.5 12C8.5 12.1333 8.49583 12.2542 8.4875 12.3625C8.47917 12.4708 8.45833 12.5833 8.425 12.7L15.45 16.8C15.7167 16.55 16.025 16.3542 16.375 16.2125C16.725 16.0708 17.1 16 17.5 16C18.3333 16 19.0417 16.2917 19.625 16.875C20.2083 17.4583 20.5 18.1667 20.5 19C20.5 19.8333 20.2083 20.5417 19.625 21.125C19.0417 21.7083 18.3333 22 17.5 22Z" fill="#373C38" style="fill:#373C38;fill:color(display-p3 0.2175 0.2355 0.2200);fill-opacity:1;"/>
</g>
</svg>
