<svg width="72" height="72" viewBox="0 0 72 72" fill="none" xmlns="http://www.w3.org/2000/svg">
<g filter="url(#filter0_d_294_1080)">
<rect x="6" y="5" width="60" height="60" rx="8" fill="white" style="fill:white;fill-opacity:1;"/>
<path d="M24.9336 49.4141H20.7617V44.4863H24.9336V49.4141ZM21.9922 48.4121H23.7207V45.5H21.9922V48.4121ZM29.4102 51.3301H28.168V43.4609H29.4102V51.3301ZM28.5254 47.5625H26.6973V46.4902H28.5254V47.5625ZM27.1133 50.9727H25.9004V43.6543H27.1133V50.9727ZM29.6973 53.8438H22.3145V52.7773H29.6973V53.8438ZM23.6152 53.3398H22.3145V50.3398H23.6152V53.3398ZM34.1855 43.918C34.7168 43.9141 35.1934 44.0059 35.6152 44.1934C36.0371 44.377 36.3652 44.6387 36.5996 44.9785C36.834 45.3145 36.9512 45.7012 36.9512 46.1387C36.9512 46.5645 36.834 46.9473 36.5996 47.2871C36.3652 47.623 36.0371 47.8867 35.6152 48.0781C35.1934 48.2656 34.7168 48.3594 34.1855 48.3594C33.6543 48.3594 33.1797 48.2656 32.7617 48.0781C32.3477 47.8867 32.0215 47.623 31.7832 47.2871C31.5449 46.9473 31.4258 46.5645 31.4258 46.1387C31.4258 45.7012 31.5449 45.3145 31.7832 44.9785C32.0215 44.6387 32.3477 44.377 32.7617 44.1934C33.1797 44.0059 33.6543 43.9141 34.1855 43.918ZM34.1855 44.9668C33.8926 44.9629 33.6328 45.0098 33.4062 45.1074C33.1836 45.2012 33.0078 45.3379 32.8789 45.5176C32.7539 45.6934 32.6914 45.9004 32.6914 46.1387C32.6914 46.3691 32.7539 46.5723 32.8789 46.748C33.0078 46.9238 33.1855 47.0586 33.4121 47.1523C33.6387 47.2461 33.8965 47.293 34.1855 47.293C34.4863 47.293 34.752 47.2461 34.9824 47.1523C35.2129 47.0586 35.3926 46.9238 35.5215 46.748C35.6504 46.5723 35.7148 46.3691 35.7148 46.1387C35.7148 45.9004 35.6504 45.6934 35.5215 45.5176C35.3926 45.3379 35.2129 45.2012 34.9824 45.1074C34.7559 45.0098 34.4902 44.9629 34.1855 44.9668ZM34.9004 53.7207H33.5996V49.4609H34.9004V53.7207ZM39.5762 54.0371H38.2871V43.4609H39.5762V54.0371ZM30.7285 49.0859C31.998 49.0859 33.207 49.0605 34.3555 49.0098C35.5078 48.959 36.5918 48.8574 37.6074 48.7051L37.6953 49.666C36.7422 49.8496 35.7637 49.9746 34.7598 50.041C33.7559 50.1035 32.6328 50.1426 31.3906 50.1582C31.25 50.1621 31.0859 50.1641 30.8984 50.1641L30.7285 49.0859ZM50.7793 52.8125H41.0996V51.7402H50.7793V52.8125ZM46.5547 52.1973H45.2715V49.6484H46.5547V52.1973ZM49.625 47.5742H43.543V49.4961H42.2422V46.5488H48.3418V45.2246H42.2246V44.1699H49.625V47.5742ZM49.877 50.0059H42.2422V48.9453H49.877V50.0059Z" fill="#373C38" style="fill:#373C38;fill:color(display-p3 0.2175 0.2355 0.2200);fill-opacity:1;"/>
<mask id="mask0_294_1080" style="mask-type:alpha" maskUnits="userSpaceOnUse" x="20" y="9" width="32" height="32">
<rect x="20" y="9" width="32" height="32" fill="#D9D9D9" style="fill:#D9D9D9;fill:color(display-p3 0.8510 0.8510 0.8510);fill-opacity:1;"/>
</mask>
<g mask="url(#mask0_294_1080)">
<path d="M35 35V18.8307L27.405 26.4257L26 25L36 15L46 25L44.595 26.4257L37 18.8307V35H35Z" fill="#616462" style="fill:#616462;fill:color(display-p3 0.3818 0.3925 0.3832);fill-opacity:1;"/>
</g>
</g>
<defs>
<filter id="filter0_d_294_1080" x="0" y="0" width="72" height="72" filterUnits="userSpaceOnUse" color-interpolation-filters="sRGB">
<feFlood flood-opacity="0" result="BackgroundImageFix"/>
<feColorMatrix in="SourceAlpha" type="matrix" values="0 0 0 0 0 0 0 0 0 0 0 0 0 0 0 0 0 0 127 0" result="hardAlpha"/>
<feOffset dy="1"/>
<feGaussianBlur stdDeviation="3"/>
<feComposite in2="hardAlpha" operator="out"/>
<feColorMatrix type="matrix" values="0 0 0 0 0 0 0 0 0 0 0 0 0 0 0 0 0 0 0.15 0"/>
<feBlend mode="normal" in2="BackgroundImageFix" result="effect1_dropShadow_294_1080"/>
<feBlend mode="normal" in="SourceGraphic" in2="effect1_dropShadow_294_1080" result="shape"/>
</filter>
</defs>
</svg>
