<svg width="24" height="25" viewBox="0 0 24 25" fill="none" xmlns="http://www.w3.org/2000/svg">
<mask id="mask0_416_1140" style="mask-type:alpha" maskUnits="userSpaceOnUse" x="0" y="0" width="24" height="25">
<rect y="0.169556" width="24" height="24" fill="#D9D9D9" style="fill:#D9D9D9;fill:color(display-p3 0.8510 0.8510 0.8510);fill-opacity:1;"/>
</mask>
<g mask="url(#mask0_416_1140)">
<path d="M19.6 21.1696L13.3 14.8696C12.8 15.2696 12.225 15.5862 11.575 15.8196C10.925 16.0529 10.2333 16.1696 9.5 16.1696C7.68333 16.1696 6.14583 15.5404 4.8875 14.2821C3.62917 13.0237 3 11.4862 3 9.66956C3 7.85289 3.62917 6.31539 4.8875 5.05706C6.14583 3.79872 7.68333 3.16956 9.5 3.16956C11.3167 3.16956 12.8542 3.79872 14.1125 5.05706C15.3708 6.31539 16 7.85289 16 9.66956C16 10.4029 15.8833 11.0946 15.65 11.7446C15.4167 12.3946 15.1 12.9696 14.7 13.4696L21 19.7696L19.6 21.1696ZM9.5 14.1696C10.75 14.1696 11.8125 13.7321 12.6875 12.8571C13.5625 11.9821 14 10.9196 14 9.66956C14 8.41956 13.5625 7.35706 12.6875 6.48206C11.8125 5.60706 10.75 5.16956 9.5 5.16956C8.25 5.16956 7.1875 5.60706 6.3125 6.48206C5.4375 7.35706 5 8.41956 5 9.66956C5 10.9196 5.4375 11.9821 6.3125 12.8571C7.1875 13.7321 8.25 14.1696 9.5 14.1696Z" fill="#0B0B0B" style="fill:#0B0B0B;fill:color(display-p3 0.0418 0.0445 0.0422);fill-opacity:1;"/>
</g>
</svg>
